<?xml version="1.0" encoding="UTF-8"?>
<svg xmlns="http://www.w3.org/2000/svg" xmlns:xlink="http://www.w3.org/1999/xlink" width="150px" height="51px" viewBox="0 0 150 51" version="1.1">
<defs>
<linearGradient id="linear0" gradientUnits="userSpaceOnUse" x1="0" y1="0" x2="1" y2="0" gradientTransform="matrix(39.38419,0,0,40.797336,3.986673,5.153033)">
<stop offset="0" style="stop-color:rgb(72.156863%,52.941176%,27.45098%);stop-opacity:1;"/>
<stop offset="1" style="stop-color:rgb(99.215686%,96.078431%,65.098039%);stop-opacity:1;"/>
</linearGradient>
<linearGradient id="linear1" gradientUnits="userSpaceOnUse" x1="0" y1="0" x2="1" y2="0" gradientTransform="matrix(1.206341,0,0,22.449447,51.849723,14.528033)">
<stop offset="0" style="stop-color:rgb(72.156863%,52.941176%,27.45098%);stop-opacity:1;"/>
<stop offset="1" style="stop-color:rgb(99.215686%,96.078431%,65.098039%);stop-opacity:1;"/>
</linearGradient>
<linearGradient id="linear2" gradientUnits="userSpaceOnUse" x1="0" y1="0" x2="1" y2="0" gradientTransform="matrix(79.779413,0,0,11.339615,59.03033,20.146142)">
<stop offset="0" style="stop-color:rgb(72.156863%,52.941176%,27.45098%);stop-opacity:1;"/>
<stop offset="1" style="stop-color:rgb(99.215686%,96.078431%,65.098039%);stop-opacity:1;"/>
</linearGradient>
</defs>
<g id="surface1">
<path style=" stroke:none;fill-rule:nonzero;fill:url(#linear0);" d="M 28.480469 5.152344 C 21.667969 2.203125 17.613281 10.136719 21.332031 14.894531 C 22.058594 9.980469 25.355469 7.660156 28.480469 5.152344 Z M 13.167969 15.917969 C 11.417969 16.878906 10.6875 18.894531 8.582031 19.5 C 9.386719 23.363281 6.230469 26.753906 9.605469 23.601562 L 9.605469 20.019531 C 12.722656 18.308594 14.878906 13.101562 19.804688 14.894531 C 18.257812 12.726562 19.277344 8.089844 18.785156 6.175781 C 16.152344 6.910156 13.667969 9.511719 15.210938 12.839844 C 12.363281 11.308594 6.410156 13.472656 7.054688 15.398438 C 8.214844 14.4375 12.628906 14.558594 13.167969 15.917969 Z M 12.832031 23.601562 C 12.832031 23.601562 14.292969 21.269531 16.535156 20.066406 C 16.945312 19.832031 12.488281 20.066406 12.488281 20.066406 Z M 22.863281 14.894531 C 25.6875 11.230469 30.160156 9.234375 36.636719 9.253906 C 32.789062 1.714844 21.941406 9.863281 22.863281 14.894531 Z M 39.703125 22.582031 C 37.832031 17.4375 30.398438 15.964844 23.378906 16.941406 C 37.292969 20.394531 21.222656 34.863281 23.378906 42.066406 C 24.402344 45.503906 31.007812 47.800781 36.636719 45.660156 C 24.988281 43.378906 37.238281 22.761719 28.988281 18.480469 C 39.449219 21.363281 27.839844 39.730469 35.613281 41.042969 C 33.46875 39.632812 33.777344 38.152344 34.078125 37.472656 C 36.769531 32.53125 42.027344 28.992188 39.703125 22.582031 Z M 23.882812 15.398438 C 33.375 13.675781 41.0625 17.871094 42.257812 26.179688 C 49.496094 12.035156 30.585938 6.933594 23.882812 15.398438 Z M 23.378906 18.480469 C 27.503906 23.601562 24.65625 31.875 16.238281 30.28125 C 16.808594 31.753906 16.335938 34.277344 17.253906 35.402344 C 18.070312 32.128906 20.613281 30.582031 25.410156 31.300781 C 27.527344 27.855469 28.019531 19.402344 23.378906 18.480469 Z M 14.671875 38.882812 C 14.625 38.917969 14.542969 38.976562 14.441406 39.082031 C 14.144531 39.308594 13.753906 39.46875 13.246094 39.492188 C 13.214844 39.492188 13.167969 39.480469 13.128906 39.46875 C 12.855469 39.253906 11.226562 37.863281 11.121094 36.679688 C 11.203125 36.574219 11.324219 36.464844 11.527344 36.371094 C 11.535156 36.371094 11.558594 36.355469 11.578125 36.355469 C 12.761719 36.238281 13.121094 36.957031 14.191406 36.941406 C 13.894531 36.023438 15.679688 34.804688 14.191406 34.382812 C 11.226562 37.675781 5.089844 33.585938 8.0625 29.246094 C 6.230469 29.109375 5.605469 30.199219 3.984375 30.28125 C 7.402344 35.222656 11.167969 39.800781 16.738281 42.585938 C 16.167969 41.113281 16.636719 38.582031 15.714844 37.457031 C 15.375 37.933594 15.089844 38.472656 14.671875 38.882812 Z M 14.671875 38.882812 "/>
<path style=" stroke:none;fill-rule:nonzero;fill:url(#linear1);" d="M 51.847656 14.527344 L 53.058594 14.527344 L 53.058594 36.980469 L 51.847656 36.980469 Z M 51.847656 14.527344 "/>
<path style=" stroke:none;fill-rule:nonzero;fill:url(#linear2);" d="M 66.773438 23.753906 C 66.773438 24.097656 66.726562 24.433594 66.613281 24.746094 C 66.511719 25.054688 66.371094 25.339844 66.199219 25.582031 C 66.027344 25.832031 65.816406 26.050781 65.578125 26.230469 C 65.347656 26.417969 65.097656 26.554688 64.847656 26.660156 C 65.394531 26.855469 65.792969 27.339844 66.066406 28.121094 L 66.542969 29.460938 C 66.714844 29.996094 66.980469 30.378906 67.324219 30.632812 C 67.175781 30.855469 66.9375 31.027344 66.613281 31.175781 C 66.304688 31.3125 65.957031 31.382812 65.578125 31.382812 C 65.199219 31.382812 64.898438 31.277344 64.691406 31.058594 C 64.476562 30.84375 64.285156 30.464844 64.105469 29.925781 L 63.535156 28.261719 C 63.421875 27.949219 63.269531 27.699219 63.074219 27.535156 C 62.878906 27.363281 62.578125 27.269531 62.191406 27.269531 L 61.546875 27.269531 L 61.546875 31.242188 C 61.214844 31.3125 60.792969 31.335938 60.28125 31.335938 C 59.777344 31.335938 59.363281 31.3125 59.035156 31.242188 L 59.035156 20.480469 L 59.144531 20.367188 C 60.066406 20.34375 60.832031 20.332031 61.453125 20.320312 C 62.085938 20.308594 62.578125 20.308594 62.933594 20.308594 C 63.511719 20.308594 64.035156 20.371094 64.523438 20.511719 C 64.992188 20.667969 65.394531 20.871094 65.730469 21.160156 C 66.066406 21.445312 66.316406 21.816406 66.496094 22.238281 C 66.679688 22.675781 66.773438 23.179688 66.773438 23.753906 Z M 61.546875 22.214844 L 61.546875 25.316406 C 62.015625 25.316406 62.433594 25.316406 62.765625 25.292969 C 63.097656 25.285156 63.375 25.214844 63.582031 25.105469 C 63.785156 24.996094 63.9375 24.84375 64.035156 24.636719 C 64.144531 24.433594 64.199219 24.144531 64.199219 23.765625 C 64.199219 22.738281 63.707031 22.222656 62.71875 22.222656 L 62.0625 22.222656 C 62.0625 22.222656 61.894531 22.214844 61.546875 22.214844 Z M 72.332031 23.085938 L 73.386719 20.394531 C 73.667969 20.332031 74.019531 20.308594 74.460938 20.308594 C 74.917969 20.308594 75.324219 20.367188 75.65625 20.488281 L 75.769531 20.621094 L 72.703125 27.914062 L 72.703125 31.242188 C 72.371094 31.3125 71.953125 31.335938 71.4375 31.335938 C 70.921875 31.335938 70.496094 31.3125 70.171875 31.242188 L 70.171875 27.84375 L 67.121094 20.695312 C 67.613281 20.410156 68.074219 20.273438 68.507812 20.273438 C 68.957031 20.273438 69.28125 20.355469 69.472656 20.503906 C 69.667969 20.652344 69.84375 20.917969 69.980469 21.28125 L 70.738281 23.179688 C 71.015625 23.859375 71.253906 24.613281 71.449219 25.441406 L 71.554688 25.441406 C 71.714844 24.773438 71.976562 23.996094 72.332031 23.085938 Z M 78.707031 28.96875 C 78.421875 28.96875 78.207031 28.96875 78.074219 28.957031 L 77.390625 31.253906 C 77.136719 31.324219 76.792969 31.359375 76.332031 31.359375 C 75.824219 31.359375 75.417969 31.300781 75.105469 31.175781 L 75.023438 31.050781 L 78.503906 20.394531 C 78.910156 20.332031 79.386719 20.308594 79.941406 20.308594 C 80.558594 20.308594 81.050781 20.34375 81.421875 20.410156 L 84.832031 31.082031 C 84.46875 31.289062 84.050781 31.382812 83.582031 31.382812 C 83.042969 31.382812 82.652344 31.289062 82.433594 31.105469 C 82.214844 30.914062 82.019531 30.542969 81.871094 30.003906 L 81.5625 28.957031 C 81.433594 28.96875 81.230469 28.96875 80.953125 28.96875 Z M 78.65625 26.972656 L 79.285156 26.957031 L 80.441406 26.957031 C 80.488281 26.957031 80.582031 26.957031 80.71875 26.972656 C 80.847656 26.972656 80.953125 26.972656 81.003906 26.972656 L 80.742188 25.980469 C 80.488281 25.097656 80.203125 24.003906 79.871094 22.714844 L 79.78125 22.714844 C 79.699219 23.167969 79.449219 24.183594 79.019531 25.753906 Z M 94.667969 20.285156 L 94.777344 20.394531 L 94.777344 31.199219 C 94.347656 31.289062 93.855469 31.335938 93.28125 31.335938 C 92.707031 31.335938 92.199219 31.3125 91.753906 31.242188 L 89.277344 25.558594 C 88.980469 24.914062 88.683594 24.167969 88.371094 23.316406 L 88.332031 23.339844 C 88.453125 24.878906 88.523438 26.464844 88.523438 28.082031 L 88.523438 31.242188 C 88.191406 31.3125 87.796875 31.335938 87.328125 31.335938 C 86.863281 31.335938 86.480469 31.3125 86.167969 31.242188 L 86.167969 20.441406 C 86.558594 20.355469 87.042969 20.308594 87.605469 20.308594 C 88.175781 20.308594 88.667969 20.332031 89.121094 20.394531 L 91.566406 26.0625 C 92.003906 27.117188 92.339844 27.925781 92.542969 28.488281 L 92.613281 28.453125 C 92.484375 26.980469 92.417969 25.417969 92.417969 23.765625 L 92.417969 21.824219 C 92.417969 21.269531 92.53125 20.882812 92.746094 20.644531 C 92.972656 20.410156 93.332031 20.285156 93.832031 20.285156 Z M 102.800781 24.722656 L 102.800781 24.519531 C 102.800781 22.964844 102.214844 22.175781 101.066406 22.175781 C 100.402344 22.175781 99.917969 22.476562 99.621094 23.085938 C 99.332031 23.695312 99.183594 24.589844 99.183594 25.785156 C 99.183594 26.957031 99.371094 27.832031 99.738281 28.40625 C 100.101562 28.96875 100.640625 29.253906 101.34375 29.253906 C 101.714844 29.253906 102.121094 29.175781 102.574219 28.992188 C 103.019531 28.824219 103.503906 28.546875 104.035156 28.167969 C 104.296875 28.347656 104.535156 28.589844 104.765625 28.898438 C 105 29.207031 105.136719 29.507812 105.183594 29.792969 C 104.941406 30.042969 104.667969 30.257812 104.34375 30.464844 C 104.019531 30.667969 103.675781 30.84375 103.292969 30.988281 C 102.933594 31.144531 102.539062 31.253906 102.121094 31.347656 C 101.722656 31.441406 101.320312 31.488281 100.910156 31.488281 C 100.089844 31.488281 99.417969 31.324219 98.855469 31.011719 C 98.292969 30.703125 97.839844 30.292969 97.496094 29.761719 C 97.160156 29.246094 96.910156 28.644531 96.761719 27.972656 C 96.597656 27.292969 96.535156 26.589844 96.535156 25.855469 C 96.535156 24.914062 96.644531 24.074219 96.886719 23.363281 C 97.121094 22.652344 97.433594 22.054688 97.851562 21.566406 C 98.253906 21.097656 98.722656 20.742188 99.277344 20.503906 C 99.824219 20.261719 100.410156 20.144531 101.035156 20.144531 C 101.667969 20.144531 102.238281 20.226562 102.753906 20.394531 C 103.269531 20.574219 103.710938 20.800781 104.066406 21.097656 C 104.4375 21.398438 104.714844 21.746094 104.90625 22.144531 C 105.097656 22.546875 105.207031 22.988281 105.207031 23.441406 C 105.207031 24.386719 104.722656 24.855469 103.769531 24.855469 C 103.480469 24.855469 103.160156 24.808594 102.800781 24.722656 Z M 112.707031 24.605469 L 112.691406 23.433594 L 112.691406 20.394531 C 113.015625 20.332031 113.441406 20.308594 113.957031 20.308594 C 114.488281 20.308594 114.902344 20.332031 115.222656 20.394531 L 115.222656 31.242188 C 114.878906 31.3125 114.464844 31.335938 113.957031 31.335938 C 113.457031 31.335938 113.027344 31.3125 112.691406 31.242188 L 112.691406 27.878906 L 112.707031 26.707031 L 111.914062 26.71875 L 110.085938 26.71875 L 109.292969 26.707031 L 109.308594 27.878906 L 109.308594 31.242188 C 108.984375 31.3125 108.558594 31.335938 108.042969 31.335938 C 107.527344 31.335938 107.109375 31.3125 106.78125 31.242188 L 106.78125 20.394531 C 107.109375 20.332031 107.527344 20.308594 108.042969 20.308594 C 108.558594 20.308594 108.984375 20.332031 109.308594 20.394531 L 109.308594 23.433594 L 109.292969 24.605469 L 110.085938 24.589844 L 111.914062 24.589844 Z M 120.246094 28.96875 C 119.957031 28.96875 119.746094 28.96875 119.613281 28.957031 L 118.933594 31.253906 C 118.683594 31.324219 118.324219 31.359375 117.878906 31.359375 C 117.371094 31.359375 116.957031 31.300781 116.648438 31.175781 L 116.566406 31.050781 L 120.035156 20.394531 C 120.449219 20.332031 120.933594 20.308594 121.472656 20.308594 C 122.089844 20.308594 122.601562 20.34375 122.964844 20.410156 L 126.378906 31.082031 C 126.011719 31.289062 125.582031 31.382812 125.128906 31.382812 C 124.574219 31.382812 124.195312 31.289062 123.980469 31.105469 C 123.75 30.914062 123.5625 30.542969 123.402344 30.003906 L 123.105469 28.957031 C 122.964844 28.96875 122.761719 28.96875 122.484375 28.96875 Z M 120.199219 26.972656 L 120.832031 26.957031 L 121.980469 26.957031 C 122.035156 26.957031 122.128906 26.957031 122.253906 26.972656 C 122.390625 26.972656 122.484375 26.972656 122.554688 26.972656 L 122.277344 25.980469 C 122.019531 25.097656 121.734375 24.003906 121.417969 22.714844 L 121.324219 22.714844 C 121.230469 23.167969 120.980469 24.183594 120.5625 25.753906 Z M 127.363281 31.214844 L 128.203125 20.410156 C 128.675781 20.332031 129.214844 20.285156 129.847656 20.285156 C 130.480469 20.285156 131.035156 20.332031 131.511719 20.410156 L 132.445312 24.304688 C 132.816406 26.0625 133.007812 27.019531 133.03125 27.175781 L 133.136719 27.175781 C 133.175781 26.910156 133.378906 25.957031 133.722656 24.304688 L 134.671875 20.410156 C 135.136719 20.332031 135.683594 20.285156 136.316406 20.285156 C 136.949219 20.285156 137.503906 20.332031 137.972656 20.410156 L 138.808594 31.214844 C 138.488281 31.300781 138.074219 31.335938 137.601562 31.335938 C 137.121094 31.335938 136.730469 31.3125 136.417969 31.253906 L 136.167969 26.839844 C 136.097656 25.082031 136.054688 23.871094 136.042969 23.179688 L 135.949219 23.179688 L 134.386719 29.636719 C 134.011719 29.707031 133.570312 29.742188 133.078125 29.742188 C 132.589844 29.742188 132.160156 29.707031 131.777344 29.636719 L 130.222656 23.179688 L 130.125 23.179688 C 130.125 24.121094 130.078125 25.339844 129.996094 26.839844 L 129.753906 31.253906 C 129.445312 31.3125 129.050781 31.335938 128.582031 31.335938 C 128.105469 31.335938 127.699219 31.300781 127.363281 31.214844 Z M 127.363281 31.214844 "/>
</g>
</svg>
