
        <svg xmlns="http://www.w3.org/2000/svg" xmlns:xlink="http://www.w3.org/1999/xlink" version="1.1" width="3168.5393258426966" height="1050.9668975587174" viewBox="0 0 3168.5393258426966 1050.9668975587174">
			
			<g transform="scale(8.426966292134832) translate(10, 10)">
				<defs id="SvgjsDefs1166"><linearGradient id="SvgjsLinearGradient1173"><stop id="SvgjsStop1174" stop-color="#b88746" offset="0"/><stop id="SvgjsStop1175" stop-color="#fdf5a6" offset="1"/></linearGradient><linearGradient id="SvgjsLinearGradient1176"><stop id="SvgjsStop1177" stop-color="#b88746" offset="0"/><stop id="SvgjsStop1178" stop-color="#fdf5a6" offset="1"/></linearGradient><linearGradient id="SvgjsLinearGradient1179"><stop id="SvgjsStop1180" stop-color="#b88746" offset="0"/><stop id="SvgjsStop1181" stop-color="#fdf5a6" offset="1"/></linearGradient></defs><g id="SvgjsG1167" featureKey="symbolFeature-0" transform="matrix(1.2681384472192714,0,0,1.2681384472192714,4.485404101093483,-1.501150312313149)" fill="#fff"><g xmlns="http://www.w3.org/2000/svg"><g><path d="M44.873,2.446c-13.465-5.813-21.469,9.813-14.12,19.163C32.176,11.937,38.708,7.375,44.873,2.446z     M14.616,23.626c-3.472,1.906-4.914,5.843-9.077,7.059c1.598,7.577-4.641,14.246,2.017,8.068v-7.059    c6.161-3.368,10.435-13.613,20.171-10.086c-3.051-4.271-1.041-13.372-2.017-17.146c-5.202,1.443-10.108,6.544-7.061,13.111    c-5.634-3.014-17.388,1.233-16.137,5.043C4.809,20.716,13.539,20.96,14.616,23.626z M13.945,38.753c0,0,2.877-4.601,7.313-6.975    c0.824-0.441-7.985,0-7.985,0L13.945,38.753z M33.779,21.608c5.575-7.2,14.416-11.136,27.232-11.094    C53.39-4.303,31.962,11.711,33.779,21.608z M67.063,36.737c-3.7-10.131-18.396-13.015-32.274-11.095    c27.511,6.801-4.269,35.25,0,49.421c2.032,6.749,15.094,11.283,26.222,7.06c-23.024-4.493,1.187-45.024-15.128-53.454    c20.691,5.66-2.267,41.805,13.11,44.377c-4.249-2.781-3.641-5.699-3.049-7.016C61.257,56.311,71.668,49.348,67.063,36.737z     M35.797,22.617c18.77-3.389,33.964,4.848,36.309,21.18C86.421,15.989,49.034,5.956,35.797,22.617z M34.789,28.668    c8.168,10.069,2.536,26.342-14.122,23.196c1.136,2.898,0.205,7.865,2.019,10.086c1.627-6.438,6.64-9.498,16.137-8.069    C42.995,47.099,43.974,30.482,34.789,28.668z M17.585,68.788c-0.096,0.069-0.242,0.198-0.446,0.399    c-0.604,0.459-1.363,0.763-2.371,0.815c-0.081-0.014-0.158-0.03-0.234-0.05c-0.535-0.438-3.771-3.168-3.961-5.483    c0.149-0.22,0.389-0.449,0.781-0.614c0.038-0.011,0.073-0.022,0.111-0.034c2.338-0.229,3.041,1.177,5.169,1.154    c-0.603-1.795,2.955-4.188,0-5.041c-5.859,6.5-18.003-1.564-12.103-10.086c-3.632-0.27-4.86,1.864-8.068,2.017    c6.749,9.724,14.194,18.75,25.213,24.207c-1.135-2.9-0.203-7.866-2.016-10.086C18.963,66.914,18.403,67.981,17.585,68.788z"/></g></g></g><g id="SvgjsG1168" featureKey="textGroupContainer" transform="matrix(1,0,0,1,355,25)" fill="#fff"><rect xmlns="http://www.w3.org/2000/svg" y="0" height="1" width="1" opacity="0"/><rect xmlns="http://www.w3.org/2000/svg" y="0" x="-235" width="3" height="56"/></g><g id="SvgjsG1169" featureKey="vMvB0T-0" transform="matrix(1.9805905989642516,0,0,1.9805905989642516,134.98949949409354,27.076840854335202)" fill="#fff"><path d="M11.32 10.56 q0 0.66 -0.2 1.25 t-0.53 1.06 t-0.78 0.82 t-0.93 0.53 q1.04 0.38 1.54 1.84 l0.6 1.7 q0.34 1 1 1.48 q-0.3 0.4 -0.9 0.67 t-1.32 0.27 t-1.12 -0.41 t-0.74 -1.43 l-0.72 -2.1 q-0.22 -0.6 -0.59 -0.92 t-1.11 -0.32 l-0.82 0 l0 5 q-0.64 0.12 -1.6 0.12 t-1.58 -0.12 l0 -13.56 l0.14 -0.14 q1.74 -0.04 2.93 -0.06 t1.87 -0.02 q1.1 0 2 0.27 t1.53 0.81 t0.98 1.36 t0.35 1.9 z M4.7 8.62 l0 3.92 q0.9 0 1.54 -0.03 t1.03 -0.24 t0.59 -0.59 t0.2 -1.1 q0 -1.94 -1.88 -1.94 l-0.83 0 t-0.65 -0.02 z M18.36 9.72 l1.34 -3.38 q0.52 -0.12 1.34 -0.12 q0.88 0 1.52 0.24 l0.14 0.16 l-3.88 9.18 l0 4.2 q-0.62 0.12 -1.6 0.12 t-1.6 -0.12 l0 -4.28 l-3.86 -9 q0.92 -0.54 1.76 -0.54 t1.21 0.29 t0.65 0.99 l0.96 2.38 q0.52 1.28 0.9 2.86 l0.12 0 q0.32 -1.26 1 -2.98 z M26.42 17.14 q-0.54 0 -0.8 -0.02 l-0.86 2.9 q-0.48 0.12 -1.34 0.12 q-0.96 0 -1.56 -0.22 l-0.1 -0.16 l4.4 -13.42 q0.78 -0.12 1.82 -0.12 q1.18 0 1.88 0.14 l4.32 13.44 q-0.7 0.38 -1.58 0.38 q-1.04 0 -1.46 -0.36 t-0.72 -1.38 l-0.38 -1.32 q-0.26 0.02 -0.78 0.02 l-2.84 0 z M26.360000000000003 14.620000000000001 l0.8 -0.02 l1.46 0 q0.1 0 0.35 0.01 t0.37 0.01 l-0.34 -1.24 q-0.48 -1.68 -1.1 -4.12 l-0.12 0 q-0.16 0.86 -0.96 3.82 z M46.620000000000005 6.199999999999999 l0.14 0.14 l0 13.6 q-0.8 0.18 -1.89 0.18 t-1.93 -0.12 l-3.14 -7.16 q-0.56 -1.22 -1.14 -2.82 l-0.06 0.02 q0.24 2.92 0.24 5.98 l0 3.98 q-0.62 0.12 -1.5 0.12 t-1.48 -0.12 l0 -13.6 q0.76 -0.18 1.83 -0.18 t1.91 0.12 l3.1 7.14 q0.84 1.98 1.24 3.04 l0.08 -0.04 q-0.24 -2.78 -0.24 -5.9 l0 -2.44 q0 -1.04 0.42 -1.49 t1.36 -0.45 l1.06 0 z M56.92 11.78 l0 -0.24 q0 -2.96 -2.2 -2.96 q-1.26 0 -1.82 1.15 t-0.56 3.39 q0 2.22 0.7 3.3 t2.04 1.08 q0.7 0 1.55 -0.33 t1.85 -1.05 q0.5 0.34 0.93 0.93 t0.53 1.13 q-0.46 0.44 -1.07 0.83 t-1.32 0.67 t-1.48 0.45 t-1.55 0.17 q-1.54 0 -2.6 -0.59 t-1.71 -1.57 t-0.94 -2.26 t-0.29 -2.66 q0 -1.8 0.45 -3.15 t1.22 -2.25 t1.81 -1.35 t2.22 -0.45 q1.2 0 2.18 0.32 t1.67 0.88 t1.06 1.32 t0.37 1.64 q0 1.78 -1.82 1.78 q-0.54 0 -1.22 -0.18 z M69.46000000000001 11.64 l-0.02 -1.48 l0 -3.82 q0.62 -0.12 1.61 -0.12 t1.59 0.12 l0 13.66 q-0.64 0.12 -1.6 0.12 t-1.6 -0.12 l0 -4.24 l0.02 -1.48 l-1 0.02 l-2.32 0 l-1 -0.02 l0.02 1.48 l0 4.24 q-0.62 0.12 -1.6 0.12 t-1.6 -0.12 l0 -13.66 q0.62 -0.12 1.6 -0.12 t1.6 0.12 l0 3.82 l-0.02 1.48 l1 -0.02 l2.32 0 z M79.00000000000001 17.14 q-0.54 0 -0.8 -0.02 l-0.86 2.9 q-0.48 0.12 -1.34 0.12 q-0.96 0 -1.56 -0.22 l-0.1 -0.16 l4.4 -13.42 q0.78 -0.12 1.82 -0.12 q1.18 0 1.88 0.14 l4.32 13.44 q-0.7 0.38 -1.58 0.38 q-1.04 0 -1.46 -0.36 t-0.72 -1.38 l-0.38 -1.32 q-0.26 0.02 -0.78 0.02 l-2.84 0 z M78.94000000000001 14.620000000000001 l0.8 -0.02 l1.46 0 q0.1 0 0.35 0.01 t0.37 0.01 l-0.34 -1.24 q-0.48 -1.68 -1.1 -4.12 l-0.12 0 q-0.16 0.86 -0.96 3.82 z M88.02000000000001 19.96 l1.06 -13.6 q0.88 -0.16 2.08 -0.16 t2.1 0.16 l1.18 4.9 q0.7 3.32 0.74 3.62 l0.14 0 q0.08 -0.5 0.74 -3.62 l1.2 -4.9 q0.88 -0.16 2.08 -0.16 t2.1 0.16 l1.06 13.6 q-0.62 0.16 -1.53 0.16 t-1.49 -0.1 l-0.32 -5.56 q-0.14 -3.32 -0.16 -4.62 l-0.12 0 l-1.98 8.14 q-0.72 0.12 -1.65 0.12 t-1.65 -0.12 l-1.96 -8.14 l-0.14 0 q0 1.78 -0.16 4.62 l-0.3 5.56 q-0.58 0.1 -1.49 0.1 t-1.53 -0.16 z"/></g>
			</g>
		</svg>
	